<svg width="138" height="137" viewBox="0 0 138 137" fill="none" xmlns="http://www.w3.org/2000/svg">
<path d="M66.8093 120.181C66.6705 120.181 66.3981 120.181 66.2645 120.042C57.1049 117.58 57.5162 108.965 57.7886 101.856C57.9274 98.5767 58.0609 95.4309 57.3773 93.1076C56.6937 91.0567 55.3264 89.8284 53.8202 88.4611C52.314 87.0938 50.6744 85.5876 49.7184 83.4033C48.49 80.8077 48.3511 78.0731 48.3511 75.3386C48.3511 73.6989 48.3511 72.1927 47.9399 70.8255C47.3951 68.5022 46.3002 67.952 44.1104 66.996C43.1544 66.5848 42.0595 66.04 40.8311 65.3564C39.3249 64.4004 37.9577 63.3055 36.7293 62.2106C35.9068 61.5269 35.0897 60.7044 34.1337 60.1596C32.6275 59.0648 31.6715 58.7924 29.893 58.3811C29.4817 58.2422 29.0705 58.2422 28.6645 58.1087C23.3344 56.7414 22.1005 52.2283 21.0056 48.6767C19.7772 44.5749 18.5434 39.1058 18.9547 33.3646C19.0936 32.2697 20.0496 31.3137 21.1445 31.4526C22.2394 31.5915 23.1954 32.5475 23.0565 33.6425C22.7841 37.7443 23.3289 41.985 24.9685 47.5873C26.0634 51.5502 26.8805 53.3287 29.6151 54.1513C30.0263 54.2901 30.4376 54.2901 30.71 54.4237C32.6219 54.9684 34.2671 55.3797 36.4514 56.8859C37.4074 57.5695 38.3634 58.392 39.186 59.2091C40.4144 60.304 41.5092 61.26 42.7431 61.9437C43.5655 62.4884 44.5216 62.8997 45.4776 63.3109C47.9398 64.4058 50.8078 65.6342 51.7692 70.1473C52.1805 71.9259 52.1805 73.7044 52.1805 75.4775C52.1805 77.8008 52.3194 79.9906 53.1365 81.7691C53.8202 83.2753 55.0485 84.3648 56.2823 85.4597C58.0609 87.0993 60.1118 88.8778 61.0678 92.0237C62.0238 95.0306 61.8903 98.7211 61.7514 102.278C61.479 107.886 61.6126 111.988 63.8023 114.311C63.3911 111.716 63.2576 108.842 64.7584 106.93C66.2645 105.018 68.4489 104.057 70.6387 103.24C72.006 102.695 73.2344 102.145 74.0569 101.461C76.2467 99.8215 76.6525 98.3153 77.2027 95.3084L77.3416 94.8972C78.0252 92.1626 80.0761 90.9343 81.7158 89.9728C82.3994 89.5615 83.083 89.1503 83.6278 88.7444C85.951 86.6935 89.3692 81.908 89.3692 78.4898C89.3692 77.3949 89.0968 76.5778 88.4132 75.8942C87.3183 74.9382 85.8176 74.2546 84.1725 73.5709C83.2164 73.1597 82.2605 72.7484 81.299 72.2037C79.387 71.1088 78.1532 69.608 77.0583 68.3742C76.3746 67.5517 75.691 66.7346 74.8684 66.0509C73.64 65.0949 71.8615 64.956 69.9441 64.6837C68.8492 64.5448 67.8932 64.4113 66.7982 64.2724C65.0197 63.8612 63.2412 63.1775 61.7404 62.6328C60.2342 62.088 58.867 61.5379 57.4997 61.1266C54.4928 60.3041 51.6193 60.9877 48.3401 61.6714C44.3772 62.4939 41.7761 62.7662 40.4088 57.4306C40.1364 56.4746 39.1804 56.0634 37.263 55.5186C34.8008 54.835 30.1542 53.4677 31.7939 47.1761C32.6164 43.7579 35.351 41.0233 38.9026 40.0674C41.4982 39.2449 44.0993 39.5226 46.4226 40.4786C47.5175 36.3768 50.1131 32.9586 52.4364 29.9517C56.3993 24.8939 59.4117 24.3437 65.4255 24.4826H65.6979H66.3815C66.1091 24.2102 65.6979 23.9378 65.4255 23.799C64.4695 23.1153 63.5135 22.5706 62.9633 21.6091C62.1408 20.3807 61.4571 18.8746 60.9124 17.5073C59.684 14.6339 58.7226 12.7219 57.083 12.4495C55.9881 12.3106 55.171 11.2211 55.3044 9.98732C55.4433 8.75891 56.5328 8.07533 57.7666 8.20877C61.8684 8.89241 63.508 12.7219 64.7419 15.7288C65.2866 16.9572 65.8368 18.191 66.3815 19.008C66.6539 19.2804 67.3375 19.8305 67.8877 20.2365C69.1161 21.059 70.6222 22.1485 71.0335 23.6546C71.5783 25.2943 71.0335 26.3892 70.6223 26.9339C69.3939 28.5735 67.2041 28.5735 65.6979 28.4401H65.4255C60.3677 28.3012 58.7281 28.579 55.7157 32.2696C53.1201 35.5488 50.2466 39.5172 49.9742 43.7525C49.9742 44.575 49.4294 45.2586 48.607 45.531C47.9233 45.8034 46.9673 45.6699 46.4171 45.1198C44.7775 43.6136 42.3153 43.0688 39.992 43.7525C37.8022 44.4361 36.3015 45.9423 35.7513 47.9932C35.2065 50.4554 35.6124 50.5888 38.3469 51.2725C40.5368 51.9561 43.5437 52.7787 44.4997 56.1969C44.7721 57.2917 44.9109 57.703 45.0444 57.8365C45.4557 57.8365 46.6841 57.5641 47.5066 57.4252C51.0637 56.7416 54.4819 55.9191 58.4448 57.014C60.0844 57.4252 61.5906 57.97 63.0914 58.6536C64.5975 59.1984 66.0983 59.882 67.6045 60.1598C68.4269 60.2987 69.2441 60.4322 70.2001 60.5711C72.5233 60.8434 75.1245 61.1158 77.3088 62.8943C78.4037 63.8504 79.3597 64.8063 80.0434 65.7678C80.9994 66.8627 81.8219 67.9576 83.0503 68.6413C83.8728 69.0525 84.6899 69.4638 85.5124 69.8697C87.4244 70.6922 89.3419 71.5093 90.8426 73.0155C92.3488 74.5217 93.1659 76.4337 93.1659 78.7569C93.027 83.9537 88.6528 89.6951 85.9183 92.0184C85.0957 92.702 84.1397 93.2468 83.4561 93.7969C82.0888 94.6194 81.2662 95.1642 80.9939 96.1202L80.855 96.5315C80.1714 99.8107 79.4877 102.412 76.0696 105.007C74.8411 105.963 73.1961 106.647 71.6954 107.331C70.0557 108.014 68.2772 108.837 67.4546 109.793C66.6322 110.749 67.3158 114.034 67.5935 115.946C67.7324 116.768 67.8659 117.585 68.0048 118.269C68.1436 118.953 67.8659 119.636 67.3211 120.047C67.7697 119.909 67.2196 120.181 66.8084 120.181L66.8093 120.181Z" fill="#30AEBA"/>
<path d="M69.0019 129.891C35.0921 129.891 7.47461 102.273 7.47461 68.3633C7.47461 34.4535 35.0921 6.83598 69.0019 6.83598C102.912 6.83598 130.529 34.4535 130.529 68.3633C130.529 102.273 102.912 129.891 69.0019 129.891ZM69.0019 11.0773C37.4151 11.0773 11.7159 36.7779 11.7159 68.3633C11.7159 99.9486 37.422 125.649 69.0019 125.649C100.589 125.649 126.288 99.9432 126.288 68.3633C126.288 36.7765 100.587 11.0773 69.0019 11.0773Z" fill="#30AEBA"/>
<path d="M116.715 74.787C115.075 74.787 113.436 74.2422 112.069 73.2808C107.144 69.8626 105.777 61.9313 105.505 60.4306C105.093 57.5571 105.232 54.4168 105.366 51.271C105.505 45.9408 105.777 40.4717 103.176 36.3704C102.631 35.4144 101.536 34.5919 100.58 33.6359C98.9406 32.2686 97.1621 30.7624 97.4344 28.5781C97.5733 27.3496 98.5293 26.3882 99.6243 25.5711C98.3959 24.8875 97.0286 24.4763 95.6614 24.065C91.8319 22.9701 87.1854 21.6028 87.4577 14.2217C87.4577 13.1268 88.4137 12.1708 89.6475 12.1708C90.7424 12.1708 91.6985 13.1268 91.6985 14.3606C91.5596 18.4624 93.2046 18.8737 96.8952 19.9686C99.4908 20.7911 102.637 21.6082 104.96 24.4817C105.371 25.0265 105.505 25.7101 105.371 26.2603C105.232 26.805 104.826 27.4887 104.143 27.7664C102.775 28.3112 102.092 28.8613 101.681 29.1337C102.092 29.545 102.637 30.0897 103.187 30.501C104.415 31.457 105.782 32.6908 106.744 34.1915C109.89 39.3883 109.751 45.541 109.478 51.5545C109.34 54.5614 109.206 57.4349 109.617 59.8971C110.162 63.5876 111.807 68.2396 114.403 69.8793C115.498 70.5629 116.593 70.8353 117.821 70.424C118.777 70.1517 119.733 69.0568 120.555 67.9619C121.784 66.4557 123.018 64.6826 125.202 64.816C127.392 64.816 129.031 66.8669 129.987 68.2342C130.671 69.1902 130.399 70.424 129.443 71.1077C128.487 71.7913 127.253 71.5189 126.569 70.5629C125.747 69.468 125.341 69.0567 125.063 68.9233C124.652 69.1957 124.107 69.8793 123.696 70.4295C122.467 71.9356 120.961 73.8476 118.499 74.3924C118.082 74.6541 117.399 74.7876 116.715 74.7876V74.787Z" fill="#30AEBA"/>
</svg>
