<svg width="25" height="25" viewBox="0 0 25 25" fill="none" xmlns="http://www.w3.org/2000/svg">
<g filter="url(#filter0_b_318_21482)">
<rect x="0.981445" y="0.669952" width="23.5609" height="23.5609" rx="11.7804" fill="#FF0000" fill-opacity="0.56"/>
</g>
<path d="M15.1184 9.09297V8.91627C15.1184 7.61453 14.0641 6.56018 12.7623 6.56018C11.4606 6.56018 10.4062 7.61453 10.4062 8.91627V11.8614" stroke="white" stroke-width="1.10442" stroke-linecap="round" stroke-linejoin="round"/>
<path d="M11.0186 13.7403C11.4485 14.2174 12.0729 14.512 12.7621 14.512C14.0638 14.512 15.1181 13.4576 15.1181 12.1559V11.8614" stroke="white" stroke-width="1.10442" stroke-linecap="round" stroke-linejoin="round"/>
<path d="M9.68652 15.3661C10.4935 16.1141 11.5714 16.5735 12.7612 16.5735C15.2469 16.5735 17.2672 14.5532 17.2672 12.0675V11.0662" stroke="white" stroke-width="1.10442" stroke-linecap="round" stroke-linejoin="round"/>
<path d="M8.25586 11.0662V12.0675C8.25586 12.6919 8.37955 13.2809 8.60927 13.8228" stroke="white" stroke-width="1.10442" stroke-linecap="round" stroke-linejoin="round"/>
<path d="M17.5146 7.05496L8.00781 16.5677" stroke="white" stroke-width="1.10442" stroke-linecap="round" stroke-linejoin="round"/>
<path d="M12.1729 7.1492V8.91627" stroke="white" stroke-width="1.10442" stroke-linecap="round" stroke-linejoin="round"/>
<path d="M12.7617 16.5735V18.3406" stroke="white" stroke-width="1.10442" stroke-linecap="round" stroke-linejoin="round"/>
<defs>
<filter id="filter0_b_318_21482" x="-4.17249" y="-4.48399" width="33.8684" height="33.8687" filterUnits="userSpaceOnUse" color-interpolation-filters="sRGB">
<feFlood flood-opacity="0" result="BackgroundImageFix"/>
<feGaussianBlur in="BackgroundImageFix" stdDeviation="2.57697"/>
<feComposite in2="SourceAlpha" operator="in" result="effect1_backgroundBlur_318_21482"/>
<feBlend mode="normal" in="SourceGraphic" in2="effect1_backgroundBlur_318_21482" result="shape"/>
</filter>
</defs>
</svg>
