<svg width="17" height="17" viewBox="0 0 17 17" fill="none" xmlns="http://www.w3.org/2000/svg">
<path d="M2.57059 0.53363H3.71345C4.66022 0.53363 5.42773 1.30114 5.42773 2.24792V14.8193C5.42773 15.7661 4.66022 16.5336 3.71345 16.5336H2.57059C1.62382 16.5336 0.856306 15.7661 0.856306 14.8193V2.24792C0.856306 1.30114 1.62382 0.53363 2.57059 0.53363Z" fill="#D6A15E"/>
<path d="M13.8269 1.01342C14.0848 0.776037 14.4062 0.618854 14.7519 0.561044C15.0977 0.503234 15.4527 0.547297 15.7738 0.687856C16.095 0.828415 16.3682 1.05939 16.5603 1.35261C16.7523 1.64583 16.8549 1.98861 16.8555 2.33913V14.7277C16.8549 15.0782 16.7523 15.421 16.5603 15.7142C16.3682 16.0074 16.095 16.2384 15.7738 16.379C15.4527 16.5195 15.0977 16.5636 14.7519 16.5058C14.4062 16.448 14.0848 16.2908 13.8269 16.0534L7.17547 9.91056C6.9846 9.73551 6.8322 9.5227 6.72794 9.28563C6.62368 9.04856 6.56984 8.7924 6.56984 8.53342C6.56984 8.27443 6.62368 8.01827 6.72794 7.7812C6.8322 7.54413 6.9846 7.33132 7.17547 7.15627L13.8269 1.01342Z" fill="#D6A15E"/>
</svg>
