<svg width="17" height="17" viewBox="0 0 17 17" fill="none" xmlns="http://www.w3.org/2000/svg">
<path d="M14.2868 0.53363H13.144C12.1972 0.53363 11.4297 1.30114 11.4297 2.24792V14.8193C11.4297 15.7661 12.1972 16.5336 13.144 16.5336H14.2868C15.2336 16.5336 16.0011 15.7661 16.0011 14.8193V2.24792C16.0011 1.30114 15.2336 0.53363 14.2868 0.53363Z" fill="#D6A15E"/>
<path d="M3.03052 1.01342C2.77262 0.776037 2.45119 0.618854 2.10547 0.561044C1.75975 0.503234 1.40468 0.547297 1.08357 0.687856C0.762468 0.828415 0.489215 1.05939 0.297151 1.35261C0.105087 1.64583 0.00251628 1.98861 0.00195312 2.33913V14.7277C0.00251628 15.0782 0.105087 15.421 0.297151 15.7142C0.489215 16.0074 0.762468 16.2384 1.08357 16.379C1.40468 16.5195 1.75975 16.5636 2.10547 16.5058C2.45119 16.448 2.77262 16.2908 3.03052 16.0534L9.68195 9.91056C9.87283 9.73551 10.0252 9.5227 10.1295 9.28563C10.2337 9.04856 10.2876 8.7924 10.2876 8.53342C10.2876 8.27443 10.2337 8.01827 10.1295 7.7812C10.0252 7.54413 9.87283 7.33132 9.68195 7.15627L3.03052 1.01342Z" fill="#D6A15E"/>
</svg>
