<svg width="19" height="21" viewBox="0 0 19 21" fill="none" xmlns="http://www.w3.org/2000/svg">
<path d="M16.6915 7.94094L4.42698 0.855066C4.07639 0.647648 3.67715 0.536745 3.26981 0.53363C2.62949 0.53363 2.01539 0.787998 1.56261 1.24077C1.10984 1.69355 0.855469 2.30765 0.855469 2.94797V18.1555C0.85555 18.5804 0.969458 18.9975 1.18535 19.3635C1.40124 19.7295 1.71123 20.031 2.08309 20.2366C2.45495 20.4422 2.87511 20.5445 3.29987 20.5327C3.72463 20.521 4.13848 20.3957 4.49841 20.1698L16.7773 12.4125C17.1591 12.1735 17.4724 11.8398 17.6869 11.4437C17.9013 11.0476 18.0095 10.6027 18.0008 10.1524C17.9922 9.70212 17.8671 9.26172 17.6376 8.87415C17.4082 8.48659 17.0822 8.16507 16.6915 7.94094Z" fill="white"/>
</svg>
