<svg width="21" height="20" viewBox="0 0 21 20" fill="none" xmlns="http://www.w3.org/2000/svg">
<g clip-path="url(#clip0_298_19446)">
<path d="M20.275 14.5195L16.525 11.3945C16.3387 11.2383 16.0787 11.207 15.86 11.3083C15.64 11.412 15.5 11.632 15.5 11.8745V13.7495H14.4538C13.5863 13.7495 12.7937 13.3095 12.3337 12.5745L8.28625 6.09953C7.3675 4.62828 5.7825 3.74953 4.04625 3.74953H0.5V6.24953H4.04625C4.91375 6.24953 5.70625 6.68953 6.16625 7.42453L10.2137 13.8995C11.1337 15.3708 12.7188 16.2495 14.4538 16.2495H15.5V18.1245C15.5 18.367 15.64 18.587 15.86 18.6908C15.9438 18.7295 16.035 18.7495 16.125 18.7495C16.2688 18.7495 16.4112 18.7008 16.525 18.6045L20.275 15.4795C20.4187 15.3608 20.5 15.1845 20.5 14.9995C20.5 14.8145 20.4187 14.6383 20.275 14.5195Z" fill="#D6A15E"/>
<path d="M20.2758 4.51953L16.5258 1.39453C16.3395 1.23953 16.0795 1.20703 15.8608 1.30953C15.6408 1.41078 15.5008 1.63203 15.5008 1.87453V3.74953H14.4545C12.7183 3.74953 11.1333 4.62828 10.2145 6.09953L9.98828 6.46203L11.462 8.82078L12.3345 7.42453C12.7945 6.68953 13.587 6.24953 14.4545 6.24953H15.5008V8.12453C15.5008 8.36703 15.6408 8.58828 15.8608 8.69078C15.9445 8.72953 16.0358 8.74953 16.1258 8.74953C16.2695 8.74953 16.412 8.69953 16.5258 8.60453L20.2758 5.47953C20.4195 5.36078 20.5008 5.18453 20.5008 4.99953C20.5008 4.81453 20.4195 4.63828 20.2758 4.51953Z" fill="#D6A15E"/>
<path d="M7.03875 11.1783L6.1675 12.5745C5.7075 13.3095 4.91375 13.7495 4.04625 13.7495H0.5V16.2495H4.04625C5.78125 16.2495 7.36625 15.3708 8.28625 13.8995L8.5125 13.537L7.03875 11.1783Z" fill="#D6A15E"/>
</g>
<defs>
<clipPath id="clip0_298_19446">
<rect width="20" height="20" fill="white" transform="translate(0.5)"/>
</clipPath>
</defs>
</svg>
