<svg width="25" height="24" viewBox="0 0 25 24" fill="none" xmlns="http://www.w3.org/2000/svg">
<path d="M20.9853 3.51473C18.7188 1.24823 15.7053 0 12.5 0C9.29469 0 6.28123 1.24823 4.01469 3.51473C1.74823 5.78123 0.5 8.79469 0.5 12C0.5 15.2053 1.74823 18.2188 4.01469 20.4853C6.28123 22.7518 9.29469 24 12.5 24C15.7053 24 18.7188 22.7518 20.9853 20.4853C23.2518 18.2188 24.5 15.2053 24.5 12C24.5 8.79469 23.2518 5.78123 20.9853 3.51473ZM12.5 22.5938C9.64794 22.5938 7.05584 21.4605 5.14944 19.621C6.18181 16.4666 9.14783 14.2969 12.5 14.2969C15.8522 14.2969 18.8182 16.4666 19.8506 19.621C17.9442 21.4605 15.3521 22.5938 12.5 22.5938ZM8.98438 9.375C8.98438 7.43648 10.5615 5.85938 12.5 5.85938C14.4385 5.85938 16.0156 7.43648 16.0156 9.375C16.0156 11.3135 14.4385 12.8906 12.5 12.8906C10.5615 12.8906 8.98438 11.3135 8.98438 9.375ZM20.9066 18.4385C19.872 16.0181 17.8407 14.179 15.3858 13.3596C16.6186 12.4642 17.4219 11.0118 17.4219 9.375C17.4219 6.66108 15.2139 4.45312 12.5 4.45312C9.78608 4.45312 7.57812 6.66108 7.57812 9.375C7.57812 11.0118 8.38142 12.4642 9.61428 13.3596C7.15925 14.179 5.12797 16.0181 4.09344 18.4385C2.72253 16.6528 1.90625 14.4201 1.90625 12C1.90625 6.15858 6.65858 1.40625 12.5 1.40625C18.3414 1.40625 23.0938 6.15858 23.0938 12C23.0938 14.4201 22.2775 16.6528 20.9066 18.4385Z" fill="#D6A15E"/>
</svg>
