<svg width="15" height="25" viewBox="0 0 15 25" fill="none" xmlns="http://www.w3.org/2000/svg">
<path d="M8.98438 17.2969H5.5C5.51042 16.3281 5.59375 15.5156 5.75 14.8594C5.90625 14.1927 6.16667 13.5885 6.53125 13.0469C6.90625 12.5052 7.40104 11.9323 8.01562 11.3281C8.49479 10.8698 8.92708 10.4375 9.3125 10.0312C9.69792 9.61458 10.0052 9.17708 10.2344 8.71875C10.4635 8.25 10.5781 7.71354 10.5781 7.10938C10.5781 6.45312 10.4688 5.89583 10.25 5.4375C10.0312 4.97917 9.70833 4.63021 9.28125 4.39062C8.86458 4.15104 8.34375 4.03125 7.71875 4.03125C7.19792 4.03125 6.70833 4.13542 6.25 4.34375C5.79167 4.54167 5.42188 4.85417 5.14062 5.28125C4.85938 5.69792 4.70833 6.25 4.6875 6.9375H0.921875C0.942708 5.625 1.25521 4.52083 1.85938 3.625C2.46354 2.72917 3.27604 2.05729 4.29688 1.60938C5.31771 1.16146 6.45833 0.9375 7.71875 0.9375C9.11458 0.9375 10.3073 1.17708 11.2969 1.65625C12.2865 2.125 13.0417 2.8125 13.5625 3.71875C14.0938 4.61458 14.3594 5.69792 14.3594 6.96875C14.3594 7.88542 14.1771 8.71875 13.8125 9.46875C13.4479 10.2083 12.974 10.901 12.3906 11.5469C11.8073 12.1823 11.1771 12.8177 10.5 13.4531C9.91667 13.9844 9.52083 14.5625 9.3125 15.1875C9.10417 15.8021 8.99479 16.5052 8.98438 17.2969ZM5.1875 22.1719C5.1875 21.6094 5.38021 21.1354 5.76562 20.75C6.15104 20.3542 6.67708 20.1562 7.34375 20.1562C8.01042 20.1562 8.53646 20.3542 8.92188 20.75C9.30729 21.1354 9.5 21.6094 9.5 22.1719C9.5 22.7344 9.30729 23.2135 8.92188 23.6094C8.53646 23.9948 8.01042 24.1875 7.34375 24.1875C6.67708 24.1875 6.15104 23.9948 5.76562 23.6094C5.38021 23.2135 5.1875 22.7344 5.1875 22.1719Z" fill="white"/>
</svg>
